<svg width="11" height="6" viewBox="0 0 11 6" fill="none" xmlns="http://www.w3.org/2000/svg">
<path d="M1.12496 0.249012C1.19063 0.248944 1.25566 0.261851 1.31633 0.286993C1.37699 0.312134 1.43209 0.349013 1.47846 0.395512L5.62496 4.54351L9.77146 0.395512C9.81758 0.347757 9.87276 0.309666 9.93376 0.283461C9.99476 0.257257 10.0604 0.243464 10.1268 0.242887C10.1931 0.24231 10.259 0.254961 10.3204 0.280101C10.3819 0.305242 10.4377 0.342368 10.4847 0.389314C10.5316 0.436261 10.5687 0.492087 10.5939 0.553535C10.619 0.614983 10.6317 0.680823 10.6311 0.747213C10.6305 0.813602 10.6167 0.879212 10.5905 0.940214C10.5643 1.00122 10.5262 1.05639 10.4785 1.10251L5.97846 5.60451C5.88287 5.69474 5.7564 5.745 5.62496 5.745C5.49352 5.745 5.36705 5.69474 5.27146 5.60451L0.771459 1.10251C0.701554 1.03259 0.653952 0.943504 0.634667 0.846528C0.615383 0.749551 0.625285 0.649035 0.66312 0.557684C0.700955 0.466334 0.765025 0.388254 0.84723 0.333312C0.929435 0.278369 1.02608 0.249032 1.12496 0.249012Z" fill="black"/>
</svg>
