<svg width="17" height="12" viewBox="0 0 17 12" fill="none" xmlns="http://www.w3.org/2000/svg">
<path d="M10.9323 6.49996C12.6656 6.49996 14.0989 5.06663 14.0989 3.33329C14.0989 1.59996 12.6656 0.166626 10.9323 0.166626C9.19892 0.166626 7.76558 1.59996 7.76558 3.33329C7.76558 5.06663 9.19892 6.49996 10.9323 6.49996ZM10.9323 1.16663C12.1323 1.16663 13.0989 2.13329 13.0989 3.33329C13.0989 4.53329 12.1323 5.49996 10.9323 5.49996C9.73225 5.49996 8.76558 4.53329 8.76558 3.33329C8.76558 2.13329 9.73225 1.16663 10.9323 1.16663ZM12.7656 7.49996H9.09892C7.26558 7.49996 5.76558 8.99996 5.76558 10.8333V11.3333C5.76558 11.6 5.99892 11.8333 6.26558 11.8333C6.53225 11.8333 6.76558 11.6 6.76558 11.3333V10.8333C6.76558 9.53329 7.79892 8.49996 9.09892 8.49996H12.7656C14.0656 8.49996 15.0989 9.53329 15.0989 10.8333V11.3333C15.0989 11.6 15.3323 11.8333 15.5989 11.8333C15.8656 11.8333 16.0989 11.6 16.0989 11.3333V10.8333C16.0989 8.99996 14.5989 7.49996 12.7656 7.49996ZM6.09892 5.99996C6.09892 5.73329 5.86558 5.49996 5.59892 5.49996H3.76558V3.66663C3.76558 3.39996 3.53225 3.16663 3.26558 3.16663C2.99892 3.16663 2.76558 3.39996 2.76558 3.66663V5.49996H0.932251C0.665584 5.49996 0.432251 5.73329 0.432251 5.99996C0.432251 6.26663 0.665584 6.49996 0.932251 6.49996H2.76558V8.33329C2.76558 8.59996 2.99892 8.83329 3.26558 8.83329C3.53225 8.83329 3.76558 8.59996 3.76558 8.33329V6.49996H5.59892C5.86558 6.49996 6.09892 6.26663 6.09892 5.99996Z" fill="black"/>
</svg>
