<svg width="33" height="32" viewBox="0 0 33 32" fill="none" xmlns="http://www.w3.org/2000/svg">
<path d="M16.2656 18C17.3702 18 18.2656 17.1046 18.2656 16C18.2656 14.8954 17.3702 14 16.2656 14C15.1611 14 14.2656 14.8954 14.2656 16C14.2656 17.1046 15.1611 18 16.2656 18Z" fill="#262626"/>
<path d="M8.26562 18C9.37019 18 10.2656 17.1046 10.2656 16C10.2656 14.8954 9.37019 14 8.26562 14C7.16106 14 6.26562 14.8954 6.26562 16C6.26562 17.1046 7.16106 18 8.26562 18Z" fill="#262626"/>
<path d="M24.2656 18C25.3702 18 26.2656 17.1046 26.2656 16C26.2656 14.8954 25.3702 14 24.2656 14C23.1611 14 22.2656 14.8954 22.2656 16C22.2656 17.1046 23.1611 18 24.2656 18Z" fill="#262626"/>
</svg>
