<svg width="13" height="12" viewBox="0 0 13 12" fill="none" xmlns="http://www.w3.org/2000/svg">
<path d="M1.64954 3.50098H11.6" stroke="#8E8E8E" stroke-linejoin="round"/>
<path d="M7.37695 1.00049L8.80595 3.50099" stroke="#8E8E8E" stroke-linecap="round" stroke-linejoin="round"/>
<path d="M4.22852 1.05505L5.62602 3.50105" stroke="#8E8E8E" stroke-linecap="round" stroke-linejoin="round"/>
<path d="M1.625 6.0005V7.725C1.625 9.1495 1.974 9.728 2.428 10.1975C2.898 10.6515 3.477 11.001 4.901 11.001H8.349C9.773 11.001 10.352 10.6515 10.822 10.1975C11.276 9.728 11.625 9.1495 11.625 7.725V4.276C11.625 2.852 11.276 2.273 10.822 1.8035C10.352 1.3495 9.773 1 8.349 1H4.901C3.477 1 2.898 1.3495 2.428 1.8035C1.974 2.273 1.625 2.852 1.625 4.276V6.0005Z" stroke="#8E8E8E" stroke-linecap="round" stroke-linejoin="round"/>
<path fill-rule="evenodd" clip-rule="evenodd" d="M5.50654 8.83202C5.43748 8.79215 5.38013 8.73478 5.34028 8.66571C5.30043 8.59663 5.27948 8.51827 5.27954 8.43852V5.81502C5.27945 5.73517 5.30039 5.6567 5.34027 5.58752C5.38014 5.51834 5.43754 5.46088 5.50668 5.42094C5.57583 5.38099 5.65427 5.35997 5.73412 5.35999C5.81398 5.36 5.89241 5.38105 5.96154 5.42102L8.23404 6.73302C8.3032 6.77289 8.36064 6.83028 8.40057 6.8994C8.44051 6.96852 8.46154 7.04694 8.46154 7.12677C8.46154 7.2066 8.44051 7.28502 8.40057 7.35414C8.36064 7.42327 8.3032 7.48065 8.23404 7.52052L5.96154 8.83252C5.89237 8.87246 5.81391 8.89348 5.73404 8.89348C5.65417 8.89348 5.57571 8.87196 5.50654 8.83202Z" fill="#8E8E8E"/>
</svg>
