<svg width="13" height="12" viewBox="0 0 13 12" fill="none" xmlns="http://www.w3.org/2000/svg">
<path d="M6.02238 1.89854L6.92188 0.998535L7.82137 1.89854C7.97049 2.04746 8.17263 2.13109 8.38338 2.13104H11.0129C11.254 2.13104 11.4852 2.2268 11.6556 2.39728C11.8261 2.56775 11.9219 2.79895 11.9219 3.04004V10.092C11.9219 10.3331 11.8261 10.5643 11.6556 10.7348C11.4852 10.9053 11.254 11.001 11.0129 11.001H2.83088C2.58979 11.001 2.35859 10.9053 2.18811 10.7348C2.01764 10.5643 1.92188 10.3331 1.92188 10.092V3.04004C1.92188 2.79895 2.01764 2.56775 2.18811 2.39728C2.35859 2.2268 2.58979 2.13104 2.83088 2.13104H5.46088C5.67145 2.13096 5.87339 2.04734 6.02238 1.89854Z" stroke="#262626" stroke-linecap="round" stroke-linejoin="round"/>
<path d="M10.2208 11.001V10.7C10.2208 10.1764 10.0129 9.67423 9.64268 9.30396C9.2725 8.93368 8.77041 8.7256 8.24682 8.72546H5.66932C5.14565 8.72546 4.64343 8.93349 4.27314 9.30378C3.90285 9.67407 3.69482 10.1763 3.69482 10.7V11.0015" stroke="#262626" stroke-linecap="round" stroke-linejoin="round"/>
<path d="M6.95793 7.31552C7.93989 7.31552 8.73593 6.51948 8.73593 5.53752C8.73593 4.55556 7.93989 3.75952 6.95793 3.75952C5.97597 3.75952 5.17993 4.55556 5.17993 5.53752C5.17993 6.51948 5.97597 7.31552 6.95793 7.31552Z" stroke="#262626" stroke-linecap="round" stroke-linejoin="round"/>
</svg>
